<?xml version="1.0" encoding="UTF-8"?>
<svg id="Layer_1" data-name="Layer 1" xmlns="http://www.w3.org/2000/svg" viewBox="0 0 528.67632 499.87346">
  <defs>
    <style>
      .cls-1 {
        fill: #111;
      }
    </style>
  </defs>
  <rect class="cls-1" x="332.53189" y="-33.01419" width="72.90502" height="565.83797" rx="36.45248" ry="36.45248" transform="translate(-75.51785 217.97293) rotate(-29.99998)"/>
  <path class="cls-1" d="M381.9212,432.59953c0,23.21538-12.02363,45.76445-33.57424,58.20402-32.13902,18.53493-73.20271,7.5514-91.73713-24.58763l-44.766-77.48754-19.3663-33.57475-1.01979-1.76838-.02031-.02031-.04164-.06297-2.39254-4.1604c-.02082-.04114-.04164-.06196-.06247-.1036l-.04164-.06247-.06196-.12493c-.02133-.04164-.04164-.06247-.06297-.10411l-.91517-1.62211-4.51388-7.82209-.81156-1.39357-9.94292-17.18249c-.10411-.14576-.22905-.35347-.35398-.52005l-.02082-.02082-.02031-.06196c-.04164-.08329-.12493-.16658-.20822-.27069-.1874-.27069-.41594-.52005-.64498-.7491-.06247-.06196-.14576-.14525-.20822-.24936,0,0-.06196-.02082-.06196-.04164l-.04164-.04164c-.14576-.12493-.31234-.24936-.45809-.35347-.45708-.39562-1.01877-.7491-1.53882-1.0401-.02133,0-.04164-.02082-.04164-.02082-.31234-.16658-.58252-.29151-.87403-.3748-.16607-.08329-.35347-.12443-.52005-.18689-.02082-.02082-.08278-.02082-.10411-.04164-.89434-.27018-1.83033-.39512-2.80797-.3748h-.02082c-1.43522.02133-2.91208.41645-4.26452,1.18586-1.2275.72827-2.22596,1.68509-2.95372,2.78765-.23565.41594-.4718.83239-.70745,1.24832-.7557,1.29657-1.5114,2.59314-2.2671,3.88971l-2.12185,3.66118-.02082.02082-.08329.16658c-4.36863,9.04858-4.32698,19.96964,1.08175,29.33055l.18689.31234c.22905.39512.47891.81106.72827,1.16453,0,.04164.02082.04164.02082.04164.79023,1.01979,1.58097,2.05989,2.30874,3.14113,0,.04164.04164.06247.06247.08329,1.4149,2.01774,2.78765,4.11876,4.01516,6.3239l.56119.91517c1.9766,3.45295,3.70333,6.94806,5.15937,10.50512,1.20617,2.93341,2.24627,5.92878,3.05784,8.8825.1036.39512.20772.74859.33265,1.10257.16658.66581.37429,1.35193.54087,2.05938,8.92415,36.23696-6.6149,75.44898-40.54312,95.08597-13.58378,7.86323-28.39456,11.58687-43.01844,11.58687-29.72617,0-58.66211-15.43545-74.6171-43.01844l-.5617-.91568c-23.77657-41.18811-9.71438-93.87929,31.47373-117.65586,16.4334-9.52749,34.73928-12.98095,52.25442-11.08764.5617.12493,1.08175.16658,1.62262.22854,1.0401.12493,2.10102.16658,3.16195.16658,5.32544,0,10.71335-1.37275,15.64316-4.20205,4.34781-2.53779,7.86323-5.92878,10.46348-9.83932l.06247-.10411,1.66426-2.9329,10.94138-18.95087.04164-.06247.02133-.06196c2.35038-4.49356,3.59871-9.50667,3.59871-14.60306,0-2.455-.29151-4.93032-.89485-7.38482-.06247-.27069-.14525-.52005-.18689-.76992-.06247-.12443-.10411-.24936-.12493-.39512-.31183-1.06092-.66581-2.16349-1.12339-3.20359-.37429-.95681-.81156-1.8928-1.35193-2.80797-4.4311-7.67582-8.84086-15.37298-13.27196-23.0488-18.55524-32.1182-7.53007-73.18138,24.56731-91.7163,32.1182-18.55524,73.18138-7.55089,91.75795,24.54649l131.05275,227.01224c6.09485,10.58841,8.98611,22.13364,8.98611,33.53311Z"/>
</svg>